<?xml version="1.0" encoding="utf-8"?>
<!-- Generated by IcoMoon.io -->
<!DOCTYPE svg PUBLIC "-//W3C//DTD SVG 1.1//EN" "http://www.w3.org/Graphics/SVG/1.1/DTD/svg11.dtd">
<svg version="1.1" xmlns="http://www.w3.org/2000/svg" xmlns:xlink="http://www.w3.org/1999/xlink" width="1024" height="1024" viewBox="0 0 1024 1024">
<g id="icomoon-ignore">
</g>
<path d="M879.065 83.81l137.767 116.106c4.385 3.819 7.141 9.412 7.141 15.649 0 4.916-1.712 9.432-4.573 12.984l-591.92 709.356c-3.61 4.467-9.088 7.299-15.228 7.299-0.796 0-1.581-0.048-2.352-0.14-4.69-0.263-8.998-2.094-12.382-4.978l-389.957-328.995c-4.621-3.856-7.54-9.617-7.54-16.060 0-4.937 1.714-9.473 4.579-13.047l115.129-137.963c3.828-4.313 9.386-7.017 15.576-7.017 5.161 0 9.883 1.88 13.518 4.993l237.54 200.365 464.187-556.268c3.639-4.493 9.156-7.342 15.338-7.342 5.075 0 9.702 1.92 13.194 5.073z"></path>
</svg>
