<svg xmlns="http://www.w3.org/2000/svg" xmlns:xlink="http://www.w3.org/1999/xlink" version="1.1" enable-background="new 0 0 100 100" xml:space="preserve" width="79" height="66"><rect id="backgroundrect" width="100%" height="100%" x="0" y="0" fill="none" stroke="none" class=""/><g class="currentLayer"><title>Layer 1</title><path d="M78.9783225326538,3.3879559231605008 c-0.6430000000000002,-3.085 -2.334,-4.018 -5.358,-2.983 c-0.4420000000000001,0.15000000000000005 -0.9,0.25 -1.354,0.3730000000000001 c-1.6870000000000005,0.6950000000000004 -3.358,1.4420000000000002 -5.066,2.082 c-2.845,1.071 -5.716,2.075 -8.573,3.107 c-1.749,0.7270000000000002 -3.486,1.487 -5.247,2.178 c-4.411,1.7240000000000002 -8.835,3.417 -13.259,5.125 c-9.099,3.5060000000000002 -18.201,7.015 -27.302,10.522 c-2.048,0.789 -4.111,1.5390000000000001 -6.138,2.3770000000000002 c-1.776,0.7380000000000002 -3.591,1.443 -5.23,2.433 c-0.7310000000000002,0.4370000000000001 -1.524,1.581 -1.4460000000000002,2.309 c0.08300000000000003,0.7370000000000002 1.207,1.363 1.891,2.02 c0.128,0.12000000000000002 0.3410000000000002,0.15900000000000006 0.522,0.21400000000000005 c4.823,1.493 9.65,2.983 14.474,4.474 c-0.023000000000000013,0.505 0.031000000000000014,1.02 0.18800000000000006,1.524 l1.7590000000000003,5.632 l2.307,7.3870000000000005 c0.272,0.8590000000000002 0.541,1.697 0.809,2.54 c0.6590000000000003,2.054 1.3370000000000002,4.181 1.9580000000000002,6.264 c1.348,4.509 4.993,4.8580000000000005 6.076,4.8580000000000005 c0.16600000000000006,0 0.3340000000000002,-0.012000000000000004 0.505,-0.021000000000000008 c0.16600000000000006,0.010000000000000004 0.3330000000000002,0.021000000000000008 0.5,0.021000000000000008 c2.785,0 4.571,-1.54 5.636,-2.458 c0.19800000000000006,-0.16900000000000007 0.3870000000000001,-0.3310000000000001 0.524,-0.4360000000000001 c0.21800000000000005,-0.16300000000000006 0.4190000000000001,-0.3420000000000002 0.6070000000000002,-0.543 c0.131,-0.14500000000000005 0.263,-0.2880000000000001 0.3960000000000002,-0.4390000000000001 c0.22300000000000006,-0.24500000000000005 0.4370000000000001,-0.4790000000000001 0.6240000000000002,-0.6650000000000003 c1.6150000000000002,-1.606 3.237,-3.203 4.856,-4.8 l1.92,-1.8960000000000004 c0.275,0.18400000000000005 0.547,0.3700000000000001 0.8200000000000002,0.558 c4.378,3.267 8.746,6.548 13.138,9.798 c3.277,2.4290000000000003 5.568,1.796 7.157,-1.907 c0.6720000000000004,-3.124 1.343,-6.25 2.016,-9.373 c0.6090000000000002,-3.113 1.219,-6.219 1.8290000000000002,-9.326 c0.3870000000000001,-1.71 0.775,-3.422 1.167,-5.132 c1.018,-4.812 2.04,-9.626 3.058,-14.44 c0.3290000000000001,-1.536 0.6580000000000003,-3.071 0.984,-4.607 c0.08700000000000004,-0.3660000000000001 0.17500000000000004,-0.7300000000000002 0.253,-1.101 c1.043,-4.942 2.081,-9.886 3.12,-14.83 C79.06032253265381,3.944955923160503 79.03332253265381,3.662955923160503 78.9783225326538,3.3879559231605008 zM35.664322532653806,58.1399559231605 c-0.19200000000000006,0.19200000000000006 -0.3700000000000001,0.3960000000000002 -0.554,0.5980000000000002 l0.09700000000000006,-1.342 c0.23700000000000004,-3.252 0.4740000000000001,-6.505 0.7190000000000002,-9.754 c1.97,1.469 3.939,2.936 5.911,4.398 C39.777322532653805,54.0749559231605 37.71832253265381,56.1049559231605 35.664322532653806,58.1399559231605 zM64.07232253265381,13.6229559231605 c-4.204,3.882 -8.436,7.735 -12.678,11.575 c-3.333,3.01 -6.723,5.96 -10.045,8.982 c-1.3050000000000002,1.184 -2.593,2.387 -3.875,3.589 c-0.4740000000000001,0.4410000000000001 -0.9450000000000002,0.8870000000000002 -1.421,1.334 c-0.8280000000000002,0.777 -1.6520000000000001,1.554 -2.481,2.332 c-0.17200000000000001,0.17500000000000004 -0.3440000000000002,0.3540000000000001 -0.514,0.536 c-0.125,0.11400000000000003 -0.24800000000000005,0.22900000000000006 -0.3700000000000001,0.3470000000000002 c-0.3460000000000002,0.3620000000000001 -0.6910000000000004,0.7210000000000002 -1.036,1.082 c-0.19900000000000007,0.20400000000000001 -0.4490000000000001,0.8270000000000002 0.12000000000000002,1.147 c-0.07400000000000002,0.5880000000000002 -0.14,1.176 -0.18500000000000005,1.7640000000000002 c-0.3800000000000001,5.015 -0.7360000000000002,10.03 -1.104,15.042 c-1.3330000000000002,0.231 -1.963,-0.4280000000000001 -2.33,-1.6510000000000002 c-0.8850000000000002,-2.968 -1.852,-5.907 -2.786,-8.861 c-1.308,-4.19 -2.617,-8.385 -3.926,-12.575 c0.22300000000000006,-0.09700000000000006 0.4460000000000001,-0.19900000000000007 0.6470000000000002,-0.3270000000000001 C32.10132253265381,31.631955923160504 42.100322532653806,25.3039559231605 52.112322532653806,18.9929559231605 c3.482,-2.195 6.9670000000000005,-4.392 10.509,-6.496 c0.5960000000000002,-0.3520000000000001 1.478,-0.22800000000000006 2.229,-0.3280000000000001 C64.58132253265381,12.641955923160502 64.38432253265381,13.1929559231605 64.07232253265381,13.6229559231605 z" id="svg_1" class=""/></g></svg>