<?xml version="1.0" encoding="utf-8"?>
<!-- Generated by IcoMoon.io -->
<!DOCTYPE svg PUBLIC "-//W3C//DTD SVG 1.1//EN" "http://www.w3.org/Graphics/SVG/1.1/DTD/svg11.dtd">
<svg version="1.1" xmlns="http://www.w3.org/2000/svg" xmlns:xlink="http://www.w3.org/1999/xlink" width="1024" height="1024" viewBox="0 0 1024 1024">
<g id="icomoon-ignore">
</g>
<path d="M908.8 684.8c153.6-153.6 153.6-409.6 0-569.6-153.6-153.6-409.6-153.6-569.6 0-140.8 140.8-153.6 358.4-44.8 512-12.8 6.4-32 12.8-44.8 25.6l-230.4 230.4c-32 32-32 89.6 0 121.6s89.6 32 121.6 0l230.4-230.4c12.8-12.8 19.2-25.6 25.6-44.8 153.6 108.8 371.2 96 512-44.8zM409.6 614.4c-115.2-115.2-115.2-307.2 0-422.4 121.6-121.6 307.2-121.6 422.4 0 115.2 115.2 115.2 307.2 0 422.4s-300.8 115.2-422.4 0z"></path>
</svg>
